M48
; DRILL file {KiCad 7.0.5} date Sat Aug 26 23:21:24 2023
; FORMAT={-:-/ absolute / inch / decimal}
; #@! TF.CreationDate,2023-08-26T23:21:24+09:00
; #@! TF.GenerationSoftware,Kicad,Pcbnew,7.0.5
; #@! TF.FileFunction,Plated,1,2,PTH
FMAT,2
INCH
; #@! TA.AperFunction,Plated,PTH,ViaDrill
T1C0.0118
; #@! TA.AperFunction,Plated,PTH,ComponentDrill
T2C0.0197
; #@! TA.AperFunction,Plated,PTH,ComponentDrill
T3C0.0295
; #@! TA.AperFunction,Plated,PTH,ComponentDrill
T4C0.0300
; #@! TA.AperFunction,Plated,PTH,ComponentDrill
T5C0.0315
; #@! TA.AperFunction,Plated,PTH,ComponentDrill
T6C0.0374
; #@! TA.AperFunction,Plated,PTH,ComponentDrill
T7C0.0394
; #@! TA.AperFunction,Plated,PTH,ComponentDrill
T8C0.0402
; #@! TA.AperFunction,Plated,PTH,ComponentDrill
T9C0.1260
%
G90
G05
T1
X4.9Y-4.65
X5.85Y-3.375
X6.05Y-4.0
X6.15Y-3.05
X6.775Y-3.7
T2
X4.2805Y-2.575
X4.2805Y-4.725
X4.3082Y-2.5082
X4.3082Y-2.6418
X4.3082Y-4.6582
X4.3082Y-4.7918
X4.375Y-2.4805
X4.375Y-2.6695
X4.375Y-4.6305
X4.375Y-4.8195
X4.4418Y-2.5082
X4.4418Y-2.6418
X4.4418Y-4.6582
X4.4418Y-4.7918
X4.4695Y-2.575
X4.4695Y-4.725
X7.5805Y-2.575
X7.5805Y-4.725
X7.6082Y-2.5082
X7.6082Y-2.6418
X7.6082Y-4.6582
X7.6082Y-4.7918
X7.675Y-2.4805
X7.675Y-2.6695
X7.675Y-4.6305
X7.675Y-4.8195
X7.7418Y-2.5082
X7.7418Y-2.6418
X7.7418Y-4.6582
X7.7418Y-4.7918
X7.7695Y-2.575
X7.7695Y-4.725
T3
X5.6Y-3.525
X5.65Y-3.525
X5.7Y-3.525
T4
X7.0Y-3.075
X7.0Y-3.9
X7.1Y-3.075
X7.1Y-3.9
X7.2Y-3.075
X7.2Y-3.9
X7.3Y-3.075
X7.3Y-4.0
X7.3Y-4.1
X7.3Y-4.2
X7.4Y-3.075
X7.4Y-4.0
X7.4Y-4.1
X7.4Y-4.2
X7.5Y-3.075
X7.6Y-3.075
X7.7Y-3.075
T5
X5.0Y-3.95
X5.0Y-4.25
X5.1Y-3.55
X5.2504Y-3.9591
X5.2504Y-4.2591
X5.3504Y-3.9591
X5.3504Y-4.2591
X5.4Y-3.55
X5.4504Y-3.9591
X5.4504Y-4.2591
X5.5504Y-3.9591
X5.5504Y-4.2591
X6.075Y-3.425
X6.375Y-3.425
T6
X5.0047Y-2.85
X5.0531Y-4.5
X5.1031Y-2.85
X5.1516Y-4.5
X5.2016Y-2.85
X5.25Y-4.5
X5.3Y-2.85
X5.5031Y-4.5
X5.55Y-2.85
X5.6016Y-4.5
X5.6484Y-2.85
X5.7Y-4.5
X5.7469Y-2.85
X5.8453Y-2.85
X5.9516Y-4.5
X6.05Y-4.5
X6.1484Y-4.5
T7
X4.6358Y-2.9508
X4.6358Y-3.0492
X4.6358Y-3.3008
X4.6358Y-3.3992
X4.6358Y-3.9008
X4.6358Y-3.9992
X4.6358Y-4.2508
X4.6358Y-4.3492
X6.3Y-2.85
X6.3984Y-2.85
X6.65Y-2.85
X6.7484Y-2.85
T8
X5.15Y-3.2
X5.15Y-3.8
X5.25Y-3.2
X5.25Y-3.8
X5.35Y-3.2
X5.35Y-3.8
X5.45Y-3.2
X5.45Y-3.8
X5.55Y-3.2
X5.55Y-3.8
X5.65Y-3.2
X5.65Y-3.8
X5.75Y-3.2
X5.75Y-3.8
X5.85Y-3.2
X5.85Y-3.8
X5.95Y-3.2
X5.95Y-3.8
X6.05Y-3.2
X6.05Y-3.8
X6.15Y-3.2
X6.15Y-3.8
X6.25Y-3.2
X6.25Y-3.8
X6.35Y-3.2
X6.35Y-3.8
X6.45Y-3.2
X6.45Y-3.8
X6.55Y-3.2
X6.55Y-3.8
T9
X4.375Y-2.575
X4.375Y-4.725
X7.675Y-2.575
X7.675Y-4.725
T0
M30
