%TF.GenerationSoftware,KiCad,Pcbnew,7.0.5*%
%TF.CreationDate,2023-08-26T23:21:22+09:00*%
%TF.ProjectId,Motherbord_Master,4d6f7468-6572-4626-9f72-645f4d617374,rev?*%
%TF.SameCoordinates,Original*%
%TF.FileFunction,Legend,Bot*%
%TF.FilePolarity,Positive*%
%FSLAX46Y46*%
G04 Gerber Fmt 4.6, Leading zero omitted, Abs format (unit mm)*
G04 Created by KiCad (PCBNEW 7.0.5) date 2023-08-26 23:21:22*
%MOMM*%
%LPD*%
G01*
G04 APERTURE LIST*
%ADD10C,0.300000*%
G04 APERTURE END LIST*
D10*
X188040489Y-63935828D02*
X188040489Y-62435828D01*
X188040489Y-62435828D02*
X187540489Y-63507257D01*
X187540489Y-63507257D02*
X187040489Y-62435828D01*
X187040489Y-62435828D02*
X187040489Y-63935828D01*
X186111917Y-63935828D02*
X186254774Y-63864400D01*
X186254774Y-63864400D02*
X186326203Y-63792971D01*
X186326203Y-63792971D02*
X186397631Y-63650114D01*
X186397631Y-63650114D02*
X186397631Y-63221542D01*
X186397631Y-63221542D02*
X186326203Y-63078685D01*
X186326203Y-63078685D02*
X186254774Y-63007257D01*
X186254774Y-63007257D02*
X186111917Y-62935828D01*
X186111917Y-62935828D02*
X185897631Y-62935828D01*
X185897631Y-62935828D02*
X185754774Y-63007257D01*
X185754774Y-63007257D02*
X185683346Y-63078685D01*
X185683346Y-63078685D02*
X185611917Y-63221542D01*
X185611917Y-63221542D02*
X185611917Y-63650114D01*
X185611917Y-63650114D02*
X185683346Y-63792971D01*
X185683346Y-63792971D02*
X185754774Y-63864400D01*
X185754774Y-63864400D02*
X185897631Y-63935828D01*
X185897631Y-63935828D02*
X186111917Y-63935828D01*
X185183345Y-62935828D02*
X184611917Y-62935828D01*
X184969060Y-62435828D02*
X184969060Y-63721542D01*
X184969060Y-63721542D02*
X184897631Y-63864400D01*
X184897631Y-63864400D02*
X184754774Y-63935828D01*
X184754774Y-63935828D02*
X184611917Y-63935828D01*
X184111917Y-63935828D02*
X184111917Y-62435828D01*
X183469060Y-63935828D02*
X183469060Y-63150114D01*
X183469060Y-63150114D02*
X183540488Y-63007257D01*
X183540488Y-63007257D02*
X183683345Y-62935828D01*
X183683345Y-62935828D02*
X183897631Y-62935828D01*
X183897631Y-62935828D02*
X184040488Y-63007257D01*
X184040488Y-63007257D02*
X184111917Y-63078685D01*
X182183345Y-63864400D02*
X182326202Y-63935828D01*
X182326202Y-63935828D02*
X182611917Y-63935828D01*
X182611917Y-63935828D02*
X182754774Y-63864400D01*
X182754774Y-63864400D02*
X182826202Y-63721542D01*
X182826202Y-63721542D02*
X182826202Y-63150114D01*
X182826202Y-63150114D02*
X182754774Y-63007257D01*
X182754774Y-63007257D02*
X182611917Y-62935828D01*
X182611917Y-62935828D02*
X182326202Y-62935828D01*
X182326202Y-62935828D02*
X182183345Y-63007257D01*
X182183345Y-63007257D02*
X182111917Y-63150114D01*
X182111917Y-63150114D02*
X182111917Y-63292971D01*
X182111917Y-63292971D02*
X182826202Y-63435828D01*
X181469060Y-63935828D02*
X181469060Y-62935828D01*
X181469060Y-63221542D02*
X181397631Y-63078685D01*
X181397631Y-63078685D02*
X181326203Y-63007257D01*
X181326203Y-63007257D02*
X181183345Y-62935828D01*
X181183345Y-62935828D02*
X181040488Y-62935828D01*
X180040489Y-63150114D02*
X179826203Y-63221542D01*
X179826203Y-63221542D02*
X179754774Y-63292971D01*
X179754774Y-63292971D02*
X179683346Y-63435828D01*
X179683346Y-63435828D02*
X179683346Y-63650114D01*
X179683346Y-63650114D02*
X179754774Y-63792971D01*
X179754774Y-63792971D02*
X179826203Y-63864400D01*
X179826203Y-63864400D02*
X179969060Y-63935828D01*
X179969060Y-63935828D02*
X180540489Y-63935828D01*
X180540489Y-63935828D02*
X180540489Y-62435828D01*
X180540489Y-62435828D02*
X180040489Y-62435828D01*
X180040489Y-62435828D02*
X179897632Y-62507257D01*
X179897632Y-62507257D02*
X179826203Y-62578685D01*
X179826203Y-62578685D02*
X179754774Y-62721542D01*
X179754774Y-62721542D02*
X179754774Y-62864400D01*
X179754774Y-62864400D02*
X179826203Y-63007257D01*
X179826203Y-63007257D02*
X179897632Y-63078685D01*
X179897632Y-63078685D02*
X180040489Y-63150114D01*
X180040489Y-63150114D02*
X180540489Y-63150114D01*
X178826203Y-63935828D02*
X178969060Y-63864400D01*
X178969060Y-63864400D02*
X179040489Y-63792971D01*
X179040489Y-63792971D02*
X179111917Y-63650114D01*
X179111917Y-63650114D02*
X179111917Y-63221542D01*
X179111917Y-63221542D02*
X179040489Y-63078685D01*
X179040489Y-63078685D02*
X178969060Y-63007257D01*
X178969060Y-63007257D02*
X178826203Y-62935828D01*
X178826203Y-62935828D02*
X178611917Y-62935828D01*
X178611917Y-62935828D02*
X178469060Y-63007257D01*
X178469060Y-63007257D02*
X178397632Y-63078685D01*
X178397632Y-63078685D02*
X178326203Y-63221542D01*
X178326203Y-63221542D02*
X178326203Y-63650114D01*
X178326203Y-63650114D02*
X178397632Y-63792971D01*
X178397632Y-63792971D02*
X178469060Y-63864400D01*
X178469060Y-63864400D02*
X178611917Y-63935828D01*
X178611917Y-63935828D02*
X178826203Y-63935828D01*
X177683346Y-63935828D02*
X177683346Y-62935828D01*
X177683346Y-63221542D02*
X177611917Y-63078685D01*
X177611917Y-63078685D02*
X177540489Y-63007257D01*
X177540489Y-63007257D02*
X177397631Y-62935828D01*
X177397631Y-62935828D02*
X177254774Y-62935828D01*
X176111918Y-63935828D02*
X176111918Y-62435828D01*
X176111918Y-63864400D02*
X176254775Y-63935828D01*
X176254775Y-63935828D02*
X176540489Y-63935828D01*
X176540489Y-63935828D02*
X176683346Y-63864400D01*
X176683346Y-63864400D02*
X176754775Y-63792971D01*
X176754775Y-63792971D02*
X176826203Y-63650114D01*
X176826203Y-63650114D02*
X176826203Y-63221542D01*
X176826203Y-63221542D02*
X176754775Y-63078685D01*
X176754775Y-63078685D02*
X176683346Y-63007257D01*
X176683346Y-63007257D02*
X176540489Y-62935828D01*
X176540489Y-62935828D02*
X176254775Y-62935828D01*
X176254775Y-62935828D02*
X176111918Y-63007257D01*
X175754775Y-64078685D02*
X174611917Y-64078685D01*
X174254775Y-63935828D02*
X174254775Y-62435828D01*
X174254775Y-62435828D02*
X173754775Y-63507257D01*
X173754775Y-63507257D02*
X173254775Y-62435828D01*
X173254775Y-62435828D02*
X173254775Y-63935828D01*
X171897632Y-63935828D02*
X171897632Y-63150114D01*
X171897632Y-63150114D02*
X171969060Y-63007257D01*
X171969060Y-63007257D02*
X172111917Y-62935828D01*
X172111917Y-62935828D02*
X172397632Y-62935828D01*
X172397632Y-62935828D02*
X172540489Y-63007257D01*
X171897632Y-63864400D02*
X172040489Y-63935828D01*
X172040489Y-63935828D02*
X172397632Y-63935828D01*
X172397632Y-63935828D02*
X172540489Y-63864400D01*
X172540489Y-63864400D02*
X172611917Y-63721542D01*
X172611917Y-63721542D02*
X172611917Y-63578685D01*
X172611917Y-63578685D02*
X172540489Y-63435828D01*
X172540489Y-63435828D02*
X172397632Y-63364400D01*
X172397632Y-63364400D02*
X172040489Y-63364400D01*
X172040489Y-63364400D02*
X171897632Y-63292971D01*
X171254774Y-63864400D02*
X171111917Y-63935828D01*
X171111917Y-63935828D02*
X170826203Y-63935828D01*
X170826203Y-63935828D02*
X170683346Y-63864400D01*
X170683346Y-63864400D02*
X170611917Y-63721542D01*
X170611917Y-63721542D02*
X170611917Y-63650114D01*
X170611917Y-63650114D02*
X170683346Y-63507257D01*
X170683346Y-63507257D02*
X170826203Y-63435828D01*
X170826203Y-63435828D02*
X171040489Y-63435828D01*
X171040489Y-63435828D02*
X171183346Y-63364400D01*
X171183346Y-63364400D02*
X171254774Y-63221542D01*
X171254774Y-63221542D02*
X171254774Y-63150114D01*
X171254774Y-63150114D02*
X171183346Y-63007257D01*
X171183346Y-63007257D02*
X171040489Y-62935828D01*
X171040489Y-62935828D02*
X170826203Y-62935828D01*
X170826203Y-62935828D02*
X170683346Y-63007257D01*
X170183345Y-62935828D02*
X169611917Y-62935828D01*
X169969060Y-62435828D02*
X169969060Y-63721542D01*
X169969060Y-63721542D02*
X169897631Y-63864400D01*
X169897631Y-63864400D02*
X169754774Y-63935828D01*
X169754774Y-63935828D02*
X169611917Y-63935828D01*
X168540488Y-63864400D02*
X168683345Y-63935828D01*
X168683345Y-63935828D02*
X168969060Y-63935828D01*
X168969060Y-63935828D02*
X169111917Y-63864400D01*
X169111917Y-63864400D02*
X169183345Y-63721542D01*
X169183345Y-63721542D02*
X169183345Y-63150114D01*
X169183345Y-63150114D02*
X169111917Y-63007257D01*
X169111917Y-63007257D02*
X168969060Y-62935828D01*
X168969060Y-62935828D02*
X168683345Y-62935828D01*
X168683345Y-62935828D02*
X168540488Y-63007257D01*
X168540488Y-63007257D02*
X168469060Y-63150114D01*
X168469060Y-63150114D02*
X168469060Y-63292971D01*
X168469060Y-63292971D02*
X169183345Y-63435828D01*
X167826203Y-63935828D02*
X167826203Y-62935828D01*
X167826203Y-63221542D02*
X167754774Y-63078685D01*
X167754774Y-63078685D02*
X167683346Y-63007257D01*
X167683346Y-63007257D02*
X167540488Y-62935828D01*
X167540488Y-62935828D02*
X167397631Y-62935828D01*
X188111917Y-65118685D02*
X188040489Y-65047257D01*
X188040489Y-65047257D02*
X187897632Y-64975828D01*
X187897632Y-64975828D02*
X187540489Y-64975828D01*
X187540489Y-64975828D02*
X187397632Y-65047257D01*
X187397632Y-65047257D02*
X187326203Y-65118685D01*
X187326203Y-65118685D02*
X187254774Y-65261542D01*
X187254774Y-65261542D02*
X187254774Y-65404400D01*
X187254774Y-65404400D02*
X187326203Y-65618685D01*
X187326203Y-65618685D02*
X188183346Y-66475828D01*
X188183346Y-66475828D02*
X187254774Y-66475828D01*
X186326203Y-64975828D02*
X186183346Y-64975828D01*
X186183346Y-64975828D02*
X186040489Y-65047257D01*
X186040489Y-65047257D02*
X185969061Y-65118685D01*
X185969061Y-65118685D02*
X185897632Y-65261542D01*
X185897632Y-65261542D02*
X185826203Y-65547257D01*
X185826203Y-65547257D02*
X185826203Y-65904400D01*
X185826203Y-65904400D02*
X185897632Y-66190114D01*
X185897632Y-66190114D02*
X185969061Y-66332971D01*
X185969061Y-66332971D02*
X186040489Y-66404400D01*
X186040489Y-66404400D02*
X186183346Y-66475828D01*
X186183346Y-66475828D02*
X186326203Y-66475828D01*
X186326203Y-66475828D02*
X186469061Y-66404400D01*
X186469061Y-66404400D02*
X186540489Y-66332971D01*
X186540489Y-66332971D02*
X186611918Y-66190114D01*
X186611918Y-66190114D02*
X186683346Y-65904400D01*
X186683346Y-65904400D02*
X186683346Y-65547257D01*
X186683346Y-65547257D02*
X186611918Y-65261542D01*
X186611918Y-65261542D02*
X186540489Y-65118685D01*
X186540489Y-65118685D02*
X186469061Y-65047257D01*
X186469061Y-65047257D02*
X186326203Y-64975828D01*
X185254775Y-65118685D02*
X185183347Y-65047257D01*
X185183347Y-65047257D02*
X185040490Y-64975828D01*
X185040490Y-64975828D02*
X184683347Y-64975828D01*
X184683347Y-64975828D02*
X184540490Y-65047257D01*
X184540490Y-65047257D02*
X184469061Y-65118685D01*
X184469061Y-65118685D02*
X184397632Y-65261542D01*
X184397632Y-65261542D02*
X184397632Y-65404400D01*
X184397632Y-65404400D02*
X184469061Y-65618685D01*
X184469061Y-65618685D02*
X185326204Y-66475828D01*
X185326204Y-66475828D02*
X184397632Y-66475828D01*
X183897633Y-64975828D02*
X182969061Y-64975828D01*
X182969061Y-64975828D02*
X183469061Y-65547257D01*
X183469061Y-65547257D02*
X183254776Y-65547257D01*
X183254776Y-65547257D02*
X183111919Y-65618685D01*
X183111919Y-65618685D02*
X183040490Y-65690114D01*
X183040490Y-65690114D02*
X182969061Y-65832971D01*
X182969061Y-65832971D02*
X182969061Y-66190114D01*
X182969061Y-66190114D02*
X183040490Y-66332971D01*
X183040490Y-66332971D02*
X183111919Y-66404400D01*
X183111919Y-66404400D02*
X183254776Y-66475828D01*
X183254776Y-66475828D02*
X183683347Y-66475828D01*
X183683347Y-66475828D02*
X183826204Y-66404400D01*
X183826204Y-66404400D02*
X183897633Y-66332971D01*
X181183348Y-66475828D02*
X181183348Y-64975828D01*
X179826205Y-66404400D02*
X179969062Y-66475828D01*
X179969062Y-66475828D02*
X180254776Y-66475828D01*
X180254776Y-66475828D02*
X180397633Y-66404400D01*
X180397633Y-66404400D02*
X180469062Y-66332971D01*
X180469062Y-66332971D02*
X180540490Y-66190114D01*
X180540490Y-66190114D02*
X180540490Y-65761542D01*
X180540490Y-65761542D02*
X180469062Y-65618685D01*
X180469062Y-65618685D02*
X180397633Y-65547257D01*
X180397633Y-65547257D02*
X180254776Y-65475828D01*
X180254776Y-65475828D02*
X179969062Y-65475828D01*
X179969062Y-65475828D02*
X179826205Y-65547257D01*
X179183348Y-66475828D02*
X179183348Y-64975828D01*
X178540491Y-66475828D02*
X178540491Y-65690114D01*
X178540491Y-65690114D02*
X178611919Y-65547257D01*
X178611919Y-65547257D02*
X178754776Y-65475828D01*
X178754776Y-65475828D02*
X178969062Y-65475828D01*
X178969062Y-65475828D02*
X179111919Y-65547257D01*
X179111919Y-65547257D02*
X179183348Y-65618685D01*
X177826205Y-66475828D02*
X177826205Y-65475828D01*
X177826205Y-64975828D02*
X177897633Y-65047257D01*
X177897633Y-65047257D02*
X177826205Y-65118685D01*
X177826205Y-65118685D02*
X177754776Y-65047257D01*
X177754776Y-65047257D02*
X177826205Y-64975828D01*
X177826205Y-64975828D02*
X177826205Y-65118685D01*
X177111919Y-65475828D02*
X177111919Y-66475828D01*
X177111919Y-65618685D02*
X177040490Y-65547257D01*
X177040490Y-65547257D02*
X176897633Y-65475828D01*
X176897633Y-65475828D02*
X176683347Y-65475828D01*
X176683347Y-65475828D02*
X176540490Y-65547257D01*
X176540490Y-65547257D02*
X176469062Y-65690114D01*
X176469062Y-65690114D02*
X176469062Y-66475828D01*
X175540490Y-66475828D02*
X175683347Y-66404400D01*
X175683347Y-66404400D02*
X175754776Y-66332971D01*
X175754776Y-66332971D02*
X175826204Y-66190114D01*
X175826204Y-66190114D02*
X175826204Y-65761542D01*
X175826204Y-65761542D02*
X175754776Y-65618685D01*
X175754776Y-65618685D02*
X175683347Y-65547257D01*
X175683347Y-65547257D02*
X175540490Y-65475828D01*
X175540490Y-65475828D02*
X175326204Y-65475828D01*
X175326204Y-65475828D02*
X175183347Y-65547257D01*
X175183347Y-65547257D02*
X175111919Y-65618685D01*
X175111919Y-65618685D02*
X175040490Y-65761542D01*
X175040490Y-65761542D02*
X175040490Y-66190114D01*
X175040490Y-66190114D02*
X175111919Y-66332971D01*
X175111919Y-66332971D02*
X175183347Y-66404400D01*
X175183347Y-66404400D02*
X175326204Y-66475828D01*
X175326204Y-66475828D02*
X175540490Y-66475828D01*
X174469061Y-66404400D02*
X174326204Y-66475828D01*
X174326204Y-66475828D02*
X174040490Y-66475828D01*
X174040490Y-66475828D02*
X173897633Y-66404400D01*
X173897633Y-66404400D02*
X173826204Y-66261542D01*
X173826204Y-66261542D02*
X173826204Y-66190114D01*
X173826204Y-66190114D02*
X173897633Y-66047257D01*
X173897633Y-66047257D02*
X174040490Y-65975828D01*
X174040490Y-65975828D02*
X174254776Y-65975828D01*
X174254776Y-65975828D02*
X174397633Y-65904400D01*
X174397633Y-65904400D02*
X174469061Y-65761542D01*
X174469061Y-65761542D02*
X174469061Y-65690114D01*
X174469061Y-65690114D02*
X174397633Y-65547257D01*
X174397633Y-65547257D02*
X174254776Y-65475828D01*
X174254776Y-65475828D02*
X174040490Y-65475828D01*
X174040490Y-65475828D02*
X173897633Y-65547257D01*
X172611918Y-66404400D02*
X172754775Y-66475828D01*
X172754775Y-66475828D02*
X173040490Y-66475828D01*
X173040490Y-66475828D02*
X173183347Y-66404400D01*
X173183347Y-66404400D02*
X173254775Y-66261542D01*
X173254775Y-66261542D02*
X173254775Y-65690114D01*
X173254775Y-65690114D02*
X173183347Y-65547257D01*
X173183347Y-65547257D02*
X173040490Y-65475828D01*
X173040490Y-65475828D02*
X172754775Y-65475828D01*
X172754775Y-65475828D02*
X172611918Y-65547257D01*
X172611918Y-65547257D02*
X172540490Y-65690114D01*
X172540490Y-65690114D02*
X172540490Y-65832971D01*
X172540490Y-65832971D02*
X173254775Y-65975828D01*
X171897633Y-66475828D02*
X171897633Y-64975828D01*
X171754776Y-65904400D02*
X171326204Y-66475828D01*
X171326204Y-65475828D02*
X171897633Y-66047257D01*
X170683347Y-66475828D02*
X170683347Y-65475828D01*
X170683347Y-64975828D02*
X170754775Y-65047257D01*
X170754775Y-65047257D02*
X170683347Y-65118685D01*
X170683347Y-65118685D02*
X170611918Y-65047257D01*
X170611918Y-65047257D02*
X170683347Y-64975828D01*
X170683347Y-64975828D02*
X170683347Y-65118685D01*
X169969061Y-65904400D02*
X168826204Y-65904400D01*
X167611918Y-65690114D02*
X167397632Y-65761542D01*
X167397632Y-65761542D02*
X167326203Y-65832971D01*
X167326203Y-65832971D02*
X167254775Y-65975828D01*
X167254775Y-65975828D02*
X167254775Y-66190114D01*
X167254775Y-66190114D02*
X167326203Y-66332971D01*
X167326203Y-66332971D02*
X167397632Y-66404400D01*
X167397632Y-66404400D02*
X167540489Y-66475828D01*
X167540489Y-66475828D02*
X168111918Y-66475828D01*
X168111918Y-66475828D02*
X168111918Y-64975828D01*
X168111918Y-64975828D02*
X167611918Y-64975828D01*
X167611918Y-64975828D02*
X167469061Y-65047257D01*
X167469061Y-65047257D02*
X167397632Y-65118685D01*
X167397632Y-65118685D02*
X167326203Y-65261542D01*
X167326203Y-65261542D02*
X167326203Y-65404400D01*
X167326203Y-65404400D02*
X167397632Y-65547257D01*
X167397632Y-65547257D02*
X167469061Y-65618685D01*
X167469061Y-65618685D02*
X167611918Y-65690114D01*
X167611918Y-65690114D02*
X168111918Y-65690114D01*
M02*
