%TF.GenerationSoftware,KiCad,Pcbnew,7.0.5*%
%TF.CreationDate,2023-08-26T23:21:22+09:00*%
%TF.ProjectId,Motherbord_Master,4d6f7468-6572-4626-9f72-645f4d617374,rev?*%
%TF.SameCoordinates,Original*%
%TF.FileFunction,Soldermask,Bot*%
%TF.FilePolarity,Negative*%
%FSLAX46Y46*%
G04 Gerber Fmt 4.6, Leading zero omitted, Abs format (unit mm)*
G04 Created by KiCad (PCBNEW 7.0.5) date 2023-08-26 23:21:22*
%MOMM*%
%LPD*%
G01*
G04 APERTURE LIST*
G04 Aperture macros list*
%AMRoundRect*
0 Rectangle with rounded corners*
0 $1 Rounding radius*
0 $2 $3 $4 $5 $6 $7 $8 $9 X,Y pos of 4 corners*
0 Add a 4 corners polygon primitive as box body*
4,1,4,$2,$3,$4,$5,$6,$7,$8,$9,$2,$3,0*
0 Add four circle primitives for the rounded corners*
1,1,$1+$1,$2,$3*
1,1,$1+$1,$4,$5*
1,1,$1+$1,$6,$7*
1,1,$1+$1,$8,$9*
0 Add four rect primitives between the rounded corners*
20,1,$1+$1,$2,$3,$4,$5,0*
20,1,$1+$1,$4,$5,$6,$7,0*
20,1,$1+$1,$6,$7,$8,$9,0*
20,1,$1+$1,$8,$9,$2,$3,0*%
G04 Aperture macros list end*
%ADD10RoundRect,0.250000X0.600000X0.725000X-0.600000X0.725000X-0.600000X-0.725000X0.600000X-0.725000X0*%
%ADD11O,1.700000X1.950000*%
%ADD12C,0.800000*%
%ADD13C,6.400000*%
%ADD14RoundRect,0.250000X0.600000X0.750000X-0.600000X0.750000X-0.600000X-0.750000X0.600000X-0.750000X0*%
%ADD15O,1.700000X2.000000*%
%ADD16RoundRect,0.250000X-0.600000X-0.725000X0.600000X-0.725000X0.600000X0.725000X-0.600000X0.725000X0*%
%ADD17R,1.530000X1.530000*%
%ADD18C,1.530000*%
%ADD19RoundRect,0.250000X-0.750000X0.600000X-0.750000X-0.600000X0.750000X-0.600000X0.750000X0.600000X0*%
%ADD20O,2.000000X1.700000*%
%ADD21R,1.050000X1.500000*%
%ADD22O,1.050000X1.500000*%
%ADD23R,1.600000X1.600000*%
%ADD24O,1.600000X1.600000*%
%ADD25C,1.600000*%
%ADD26C,1.524000*%
%ADD27C,3.200000*%
%ADD28C,0.600000*%
G04 APERTURE END LIST*
D10*
%TO.C,J3*%
X148470000Y-72390000D03*
D11*
X145970000Y-72390000D03*
X143470000Y-72390000D03*
X140970000Y-72390000D03*
%TD*%
D12*
%TO.C,H2*%
X192545000Y-120015000D03*
X193247944Y-118317944D03*
X193247944Y-121712056D03*
X194945000Y-117615000D03*
D13*
X194945000Y-120015000D03*
D12*
X194945000Y-122415000D03*
X196642056Y-118317944D03*
X196642056Y-121712056D03*
X197345000Y-120015000D03*
%TD*%
D14*
%TO.C,J5*%
X162520000Y-72390000D03*
D15*
X160020000Y-72390000D03*
%TD*%
D16*
%TO.C,J9*%
X128350000Y-114300000D03*
D11*
X130850000Y-114300000D03*
X133350000Y-114300000D03*
%TD*%
D17*
%TO.C,U1*%
X130810000Y-96520000D03*
D18*
X133350000Y-96520000D03*
X135890000Y-96520000D03*
X138430000Y-96520000D03*
X140970000Y-96520000D03*
X143510000Y-96520000D03*
X146050000Y-96520000D03*
X148590000Y-96520000D03*
X151130000Y-96520000D03*
X153670000Y-96520000D03*
X156210000Y-96520000D03*
X158750000Y-96520000D03*
X161290000Y-96520000D03*
X163830000Y-96520000D03*
X166370000Y-96520000D03*
X166370000Y-81280000D03*
X163830000Y-81280000D03*
X161290000Y-81280000D03*
X158750000Y-81280000D03*
X156210000Y-81280000D03*
X153670000Y-81280000D03*
X151130000Y-81280000D03*
X148590000Y-81280000D03*
X146050000Y-81280000D03*
X143510000Y-81280000D03*
X140970000Y-81280000D03*
X138430000Y-81280000D03*
X135890000Y-81280000D03*
X133350000Y-81280000D03*
D17*
X130810000Y-81280000D03*
%TD*%
D12*
%TO.C,H4*%
X108725000Y-65405000D03*
X109427944Y-63707944D03*
X109427944Y-67102056D03*
X111125000Y-63005000D03*
D13*
X111125000Y-65405000D03*
D12*
X111125000Y-67805000D03*
X112822056Y-63707944D03*
X112822056Y-67102056D03*
X113525000Y-65405000D03*
%TD*%
D14*
%TO.C,J4*%
X171410000Y-72390000D03*
D15*
X168910000Y-72390000D03*
%TD*%
D19*
%TO.C,J1*%
X117750000Y-99080000D03*
D20*
X117750000Y-101580000D03*
%TD*%
D16*
%TO.C,J11*%
X151170000Y-114300000D03*
D11*
X153670000Y-114300000D03*
X156170000Y-114300000D03*
%TD*%
D19*
%TO.C,J15*%
X117750000Y-74950000D03*
D20*
X117750000Y-77450000D03*
%TD*%
D16*
%TO.C,J10*%
X139780000Y-114300000D03*
D11*
X142280000Y-114300000D03*
X144780000Y-114300000D03*
%TD*%
D21*
%TO.C,Q1*%
X144780000Y-89535000D03*
D22*
X143510000Y-89535000D03*
X142240000Y-89535000D03*
%TD*%
D12*
%TO.C,H1*%
X192545000Y-65405000D03*
X193247944Y-63707944D03*
X193247944Y-67102056D03*
X194945000Y-63005000D03*
D13*
X194945000Y-65405000D03*
D12*
X194945000Y-67805000D03*
X196642056Y-63707944D03*
X196642056Y-67102056D03*
X197345000Y-65405000D03*
%TD*%
%TO.C,H3*%
X108725000Y-120015000D03*
X109427944Y-118317944D03*
X109427944Y-121712056D03*
X111125000Y-117615000D03*
D13*
X111125000Y-120015000D03*
D12*
X111125000Y-122415000D03*
X112822056Y-118317944D03*
X112822056Y-121712056D03*
X113525000Y-120015000D03*
%TD*%
D23*
%TO.C,U2*%
X133360000Y-108180000D03*
D24*
X135900000Y-108180000D03*
X138440000Y-108180000D03*
X140980000Y-108180000D03*
X140980000Y-100560000D03*
X138440000Y-100560000D03*
X135900000Y-100560000D03*
X133360000Y-100560000D03*
%TD*%
D19*
%TO.C,J14*%
X117750000Y-83840000D03*
D20*
X117750000Y-86340000D03*
%TD*%
D10*
%TO.C,J7*%
X134620000Y-72390000D03*
D11*
X132120000Y-72390000D03*
X129620000Y-72390000D03*
X127120000Y-72390000D03*
%TD*%
D19*
%TO.C,J2*%
X117750000Y-107970000D03*
D20*
X117750000Y-110470000D03*
%TD*%
D25*
%TO.C,R3*%
X161925000Y-86995000D03*
D24*
X154305000Y-86995000D03*
%TD*%
D25*
%TO.C,R2*%
X129540000Y-90170000D03*
D24*
X137160000Y-90170000D03*
%TD*%
D26*
%TO.C,J16*%
X185420000Y-101600000D03*
X185420000Y-104140000D03*
X185420000Y-106680000D03*
X187960000Y-101600000D03*
X187960000Y-104140000D03*
X187960000Y-106680000D03*
X177800000Y-99060000D03*
X180340000Y-99060000D03*
X182880000Y-99060000D03*
%TD*%
D25*
%TO.C,R1*%
X127000000Y-100330000D03*
D24*
X127000000Y-107950000D03*
%TD*%
D27*
%TO.C,U3*%
X194310000Y-90805000D03*
X179070000Y-90805000D03*
D26*
X195580000Y-78105000D03*
X193040000Y-78105000D03*
X190500000Y-78105000D03*
X187960000Y-78105000D03*
X185420000Y-78105000D03*
X182880000Y-78105000D03*
X180340000Y-78105000D03*
X177800000Y-78105000D03*
%TD*%
D28*
X156210000Y-77470000D03*
X148590000Y-85725000D03*
X124460000Y-118110000D03*
X153670000Y-101600000D03*
X172085000Y-93980000D03*
M02*
